<svg xmlns="http://www.w3.org/2000/svg" viewBox="0 0 155 155">
  <path fill="#000" d="M72.3 127.22c-6.24-3.8-13.58-13.94-21.7-29.96-5.98-11.77-6.57-13.8-5.7-19.7 1.3-8.56 4.4-15.86 7.2-16.94 1.25-.48 2.26-1.84 2.26-3.04s1.06-3.96 2.36-6.16c2.17-3.67 2.17-4.35 0-8.54-3.25-6.27-3.03-7.1 2.37-8.98 4.94-1.73 4.8-1.8 9.4 5.25 1.45 2.26 1.73 1.48 1.8-5.02.1-8.4 1.7-10.08 8.12-8.47 3.3.82 3.65 1.65 3.73 8.54.07 6.45.35 7.22 1.82 4.95 4.57-7.06 4.43-6.98 9.4-5.25 5.6 1.96 5.65 2.3 1.56 10.72-4.12 8.48-2.3 11.54 5.55 9.37 6.3-1.77 9.3-.8 9.3 2.94 0 1.82-1.7 3.5-4.75 4.72l-4.75 1.9 6.2.5c6.14.52 7.24 1.84 5.44 6.5-.52 1.38-2.46 1.82-6.06 1.4l-5.3-.62.98 13.9c.85 12 .6 14.78-1.94 20.66-4.25 9.94-11.23 19.48-16.08 22-5.36 2.76-5.62 2.74-11.25-.7z"/>
</svg>
