<svg xmlns="http://www.w3.org/2000/svg" width="209" height="218.5" viewBox="0 0 55.3 57.8"><path fill="#000" d="M51 55.4a227.6 227.6 0 01-4.8-9 58.4 58.4 0 01-34 11.4c-3.3 0-3.5 0-3.3-1.1 0-.5.2-.6 4-1 9.2-.7 18.6-3.1 24.4-6.1 5.8-3 10.7-8 12.5-12.7.4-1 .7-1.4 1-1.5.9 0 1.4.3 1.4.6a25 25 0 01-3.2 6.5l-1.4 2 1.8 3.6c3.8 7.2 3.8 7.2 3.3 7.6-.6.6-1.3.5-1.7-.3zm-38.7-1.8a4.3 4.3 0 01-2.3-2.2c-.8-1.5-.8-2 .2-2 .7 0 1 .1 1.4 1 .4.5 1 1.1 1.6 1.4.9.4 1 .6 1 1.3 0 .7 0 .9-.5.9zm3.5-11A68.8 68.8 0 0010 24.4c-2-4.4-2-4.6-1.6-5 .2-.3 2.6-1.7 5.3-3a80 80 0 005.3-3c.6-.8.7-2.7.2-3.2-.4-.3-.5-.3-.7.2l-1.2 1.5c-.9 1-1 1-2.5 1.1-1.4.1-1.8 0-2.5-.5-.4-.4-.8-.6-.9-.6a67.7 67.7 0 00-2 3.8l-.9-.5-.6-.4 1.8-4 1.7-3.9H13l1.7-.1v.9c0 .8 0 .9-.8 1-.8 0-.8.2-.7.9.3 1.9 1.7 2.2 2.8.7.7-.8.7-1 .5-3-.2-1.5-.4-2.3-.7-2.6-.6-.6-2.2-.8-5.3-.6l-2.8.1-2.7 2a20.8 20.8 0 00-2.9 2.5c-.2.3-.6.5-1.1.5-.8 0-.9 0-1-.6 0-.9 1-2 4-4.2l2.7-2 4-.2c5.6-.2 6.6.2 7.6 3a8 8 0 001.8 3c1.1 1.3 1.3 1.6 1.3 2.7.1 1.7-.3 3.3-1 4-.2.3-2.6 1.6-5.2 3-3.2 1.6-4.7 2.5-4.6 2.8l1.5 3.5a126.3 126.3 0 012.3 5.1 45.5 45.5 0 017.9-8.5c3.6-3 7.1-4.7 11.1-5.5l2-.4.3-1.7c.6-4.4 3.6-8 8.7-10.4 2.2-1 6-2.1 9-2.5l1.9-.3v1c0 .8 0 .9-.8 1A29.4 29.4 0 0044 5.1c-4 2.3-6 5.3-6.4 9.3 0 1-.2 1.9-.3 2 0 .1-.8.4-1.6.5a25 25 0 00-15.2 8.4 26.6 26.6 0 00-5.1 6.8 41.3 41.3 0 011.8 8.4l.3 2.3h-.8l-1-.1zm5.5-1.8l-1-.4c-.1 0-.3-1.6-.3-3.3-.2-3.5.3-5.7 1.6-8.2 3.1-6 8.2-8.8 15.3-8.3 3 .2 4.3.6 4.6 1.4a28 28 0 01-1.9 11.2 10.5 10.5 0 01-6.7 6.4c-1.8.7-2.6.8-6.4 1-2.4.2-4.7.3-5.2.2zm11.3-3.2c2.7-1 4.7-3.5 5.8-7 .6-2 1-4.6.8-4.5l-2.4 3a23.5 23.5 0 01-7.7 7.5l-3 1.8c-.7.6 4.7 0 6.5-.8zm-6-1.8a22 22 0 006-4.7 38 38 0 004.4-6 22.4 22.4 0 00-8.2 6 53.4 53.4 0 00-4.3 5.5c0 .3.6 0 2.1-.8zM23.8 34c3.8-5.2 5.8-7.1 10.6-9.9l2.7-1.5h-1.7a15 15 0 00-6.7 1.6 14.2 14.2 0 00-6.6 9.5c-.3 1.6-.4 3-.1 2.8l1.7-2.4z"/></svg>
