<svg xmlns="http://www.w3.org/2000/svg" width="79.8" height="113" viewBox="0 0 79.8 113"><path fill="#000" d="M1.5 110.8A9.7 9.7 0 010 106c0-4.4 5.6-12.6 13.2-19.2C27 74.7 32 68.4 32 62.8c0-3.6-4.2-11.5-10.8-20.7C12 29.6 10.5 26 10.5 16.5c0-8.6 1.6-14 4.6-15.6C17.3-.3 24-.3 24 1c0 .5-1.1 2.8-2.5 5.2A18 18 0 0019 16c0 5 1.7 12.1 3 12 .2 0 1.8-1.8 3.3-4a22.6 22.6 0 0129.2-6.7 50.6 50.6 0 0123 29.8c2.1 7.5 3 22.1 1.6 29.5-1.6 8.4-6.8 18.4-11.1 21.3-3 2-4.5 2.3-10 2-5.7-.3-7.6-1-13.8-4.7-9.1-5.5-14.5-5.9-23-1.5-6.6 3.4-9.2 7.6-9.2 14.6v4.8H7.5c-3.4 0-4.7-.5-6-2.2zm7.2-1a15 15 0 001.5-5.4c.3-2.3 1.4-5.4 2.3-6.8 3.9-6 16.2-10.4 23.8-8.7 2 .5 6.6 2.7 10 5 5.5 3.5 7 4 11.8 4 6.7 0 9.3-1.4 13-7 4.5-6.7 6.3-14 6.3-26 0-16.1-4.2-27.6-13.8-37.7-8-8.6-17-12.3-24.6-10.2-4.5 1.2-12 7.3-14.8 12.1-.9 1.6-2 2.9-2.3 2.9a28.6 28.6 0 01-3.6-25.2c1.6-4 1.4-5-1-4.1-2.8 1-4.7 6.6-4.7 13.8 0 8.2 2.1 13.2 10.9 25 10.9 14.7 12.4 20.1 8 29-2 4.2-5 7.5-13 14.5a86 86 0 00-13 13.4c-2.4 4-3.3 10.4-1.8 12 1 1 4 .7 5-.7zM51.4 93c-2.3-1-4.4-2.7-4.8-3.6-.9-2.5 1.7-6.1 5.7-8a29 29 0 0013.9-14c1.6-3.5 4-7.3 5.3-8.6l2.4-2.2.7 2.7c.9 3.7-.3 16.3-2.3 22.7-2.1 7.4-7.7 12.9-13 12.9-2 0-5.7-1-8-2zm14-3.4C69.8 85.4 72 77.8 72 68v-7.5l-3.4 7a32.3 32.3 0 01-14.9 16c-2.6 1.4-4.7 3.3-4.7 4 0 2.2 6 5.5 9.8 5.5 2.5 0 4.3-.9 6.7-3.3z"/></svg>
