<svg xmlns="http://www.w3.org/2000/svg" viewBox="0 0 155 155">
  <path fill="#000" d="M90.5 129.62c-.44-.7-1.37-.93-2.07-.5-.7.43-2.68-.04-4.4-1.05-11.2-6.5-16.42-22.26-10.88-32.82 1.8-3.42 2.35-3.66 4.62-2 1.4 1.04 3.28 4.04 4.14 6.67 1.9 5.6 9.3 10.6 13.7 9.22 6.8-2.14.7-17.85-6.9-17.85-1.54 0-3.22-.7-3.7-1.5s-1.64-1.4-2.57-1.4c-.37 0-.57.1-.63.24-.4.9 4.54 4 6.93 4 3.04 0 8.4 6.5 8.4 10.2 0 7.46-11.92 2.76-14.2-5.58-.97-3.6-2.87-6.15-5.75-7.78-3.53-2-4.27-3.3-4.1-7.15.08-1.56.04-3.05-.07-3.64-.04-.35-.4-1.2-.7-1.9-.13-.5-.3-.7-.5-.9-.3-.23-.52-.44-1-.7-1.94-1.13 0-.27 1.07.5.25.2.3.3.45.53.28.4.5.86.77 1.25.53.9.8 2.5.85 4.07.2 5.37 5.3 7.7 7.8 4.18 4.2-5.8 23.9-6.34 27.25-.72.63 1.03 2.08 1.9 3.2 1.9 1.15 0 2.08.96 2.08 2.13 0 1.2.5 2.15 1.1 2.15 1.86 0 5.02 8.7 5.1 14.1.1 5.4-3.77 14.87-7.67 18.78-2.25 2.24-6.36 4.5-9.22 5.04-.77.14-1.73.4-2.13.6-2.26 1-10.1.9-10.8-.2zM52.45 91.94c-2.15-1.2-3.92-2.84-3.92-3.66 0-.83-2.32-4.34-5.16-7.8-4.6-5.63-5.8-6.3-11.14-6.3-3.3 0-7.22-1-8.75-2.22-2.63-2.1-2.6-2.14.6-.58 1.86.9 5.4 1.34 7.85.96 5.02-.76 8.94.86 12.4 5.14 1.73 2.13 3.85 2.83 8.15 2.66 4.9-.2 6.4.47 9.56 4.22 2.06 2.45 3.55 5.5 3.3 6.77-.58 3.1-7.9 3.56-12.9.8zm59.8-13c-2.68-2.7-.73-9.58 3.92-13.85 2.9-2.7 5.06-6.2 5.35-8.6.35-3.1 1.98-5.1 6.2-7.6l5.7-3.5-5 4.24c-4.73 4.04-5 4.77-5.17 13.72-.15 7.73-.77 10.06-3.46 12.93-3.3 3.5-5.8 4.3-7.6 2.53zM81.42 66.4c-2.73-2.9-3.3-5.16-3.46-13.5-.18-9.57-.4-10.22-5.18-14.4l-5-4.4 5.4 3.28c3.12 1.9 5.7 4.76 6.18 6.84C81.14 51.96 81.7 53 85 54.52c2.25 1 3.74 3.2 4.32 6.3 1.72 9.16-2.05 11.82-7.9 5.6zm22.5-12.9c-1.2-2.6-1.2-4.5-.1-6.97.86-1.86 1.2-5.95.8-9.08-.44-3.2.07-5.86.68-6.6 1.16-1.43 2.02-2.83 2.1-3.4.06-.6.15-1.62.08-2.07-.3-1.88.07-.37.22.8.03.24.1 1.3-.02 2.45-.06.7-1.36 2.3-1.9 4-.5 1.6.9 6.4 2.7 10.25 2.74 5.83 3.02 7.6 1.66 10.6-2.07 4.54-4.16 4.55-6.23 0z"/>
</svg>
