<svg xmlns="http://www.w3.org/2000/svg" viewBox="0 0 155 155">
  <path fill="#000" d="M79.82 139.7c0-3.08 2-6.32 3.9-6.32 1.8 0 5.4-14.84 5.4-22.25 0-2.72 1.36-3.16 5.15-1.7 2 .76 2 1.9.15 8.92-2.7 10.13-2.72 12.46-.1 11.46 2.94-1.1 14.08 5.5 14.7 8.7.46 2.4-1.1 2.7-14.34 2.7-8.17 0-14.86-.6-14.86-1.4zm1.53-41.8L71.3 88.8l-4.7 7.15-4.67 7.16H41.16c-18.1 0-20.98-.3-22.48-2.7-1.24-1.9-1.24-3.4 0-5.4 1.37-2.2 4.67-2.8 16.93-3.5l15.3-.7L63 71.4c6.63-10.7 11.83-19.6 11.6-19.9-.27-.22-7.7 1.3-16.6 3.47-8.85 2.15-17.27 3.53-18.7 3.08-3.1-1-4.67-4.48-3.45-7.68 1-2.58 2.8-3.1 35.2-10.32 28.18-6.26 28.6-6.14 36.1 11.08l5.1 11.7 10.56.5c11.18.5 14.54 2.03 14.54 6.65 0 4.34-4.86 6.08-17.06 6.08-13.45 0-16-1.22-19.2-9.26-1.4-3.46-2.8-6.27-3.2-6.27-.36 0-3.23 4.23-6.4 9.4l-5.7 9.43 8.7 8.1c8.8 8.18 10.06 11.14 7.1 16.64-3 5.64-9.3 3.74-20.13-6.1zm14.7 2.75c-.5-.8-1.58-1.06-2.4-.56-.8.5-1.05 1.5-.55 2.3.5.8 1.57 1 2.37.5s1.07-1.57.57-2.38zm1.1-67.1c-7.04-7.5-1.8-19.7 8.5-19.7 6 0 11.42 5.64 11.42 11.87 0 10.04-13.02 15.17-19.9 7.83z"/>
</svg>
