<svg xmlns="http://www.w3.org/2000/svg" viewBox="0 0 155 155">
  <g fill="#000">
    <path d="M23.46 119.43c13.86 13.86 33 22.43 54.16 22.43" class="st0"/>
    <path d="M52.26 32.88c.25 13.47 5.05 26.68 12.48 33.78 8.6 9.38 22.4 6.45 30.38-4.23 7.78-10.42 7.42-18.82 7.42-31.23 0-12.1-9.04-17.9-24.15-18.06-15.6.08-26.2 4.6-26.2 19.74m9.4 92.85c0 8.55-12.4 8.4-12.4.37 0-5.73 3.1.04 0-9.42-2.8-8.66-3.7-23.2-1.2-32.2.3-1.12 1-2.9 1.1-4.16-3.9.3-12.8 3.84-15.8 6-2.3 1.62-3.9 2.96-5.2 5.75-3.4 7.36-4.9 18.4-5.8 26.83-.7 6.3-.3 15.3-.3 22.32 28.3.07 89.9.1 110.2-.15-.3-3.73.72-12.62.2-16.26-.28-1.7-.47-3.4-.57-5-.1-1.9-.5-3.6-.7-5.3-.7-6.6-2-13-4-19.2-2.27-6.9-5.45-8.8-11.64-11.6-1.9-.8-6.96-2.7-9.14-2.8 1 2.2.02 12.3-.77 13.9 11.1 5.9 7.9 12.5 7.5 20.3-.2 5-.5 19.6-7.5 19.6-1.53 0-5.2.4-5.2-1.9 0-2.94 1.6-1.9 4.1-2.3 1.73-.3 1.82-.92 2.1-1.3 1.82-2.64 2.3-10.4 2.5-14 .2-4.13 1.4-8.1-.1-11.6-2.04-4.92-9.6-8.03-15.04-2-1.65 1.8-2.2 4.1-3.07 6.7-1.9 5.58-4.78 10.3-4.78 15.9 0 4.47 4.12 1.1 4.12 5.65 0 3.3-8.67 1.1-8.67-5.27 0-4.54 2.5-10.5 4.1-14.7.7-1.7 1.1-2.9 1.7-4.7 1.1-3.2 2.3-5.86 4.6-7.8 2.8-2.4 4.56-3.2 9.56-3.2 1.2-5.2 1.6-9.5.4-14.65-2.7-.23-5.7-2.04-8.22-2.25-.44 2.1-1.43 4.65-2.2 6.45-2.4 6-4.04 9.65-7.3 15.2l-1.7 2.8c0-2.2-.83-5.27-1.22-7.8-1.06-6.77-.2-2.77.84-7.2-1.72-1.15-3.32-3.1-4.86-4.1-2 1.1-3.27 2.8-5.27 4.14 2.26 4.76 1.5 3.67.6 9.2-.34 1.95-.85 4.1-1 5.8-.04-.05-.1-.25-.14-.2l-1.4-2.4c-3.07-5.1-8.9-16.88-9.3-21.84-1.1.03-5.66 1.23-6.4 2.25-2.56 3.4-4 16.55-3.44 21.8.6 5.3.53 9.9 2.5 15.16 2.3 5.9-.4 2.5 4.3 4.3 1.7.66 3.8 3.08 3.8 5.3z" class="st1"/>
  </g>
</svg>
