<svg xmlns="http://www.w3.org/2000/svg" width="171.3" height="196.2" viewBox="0 0 45.3 51.9"><path fill="#000" fill-opacity=".9" d="M14.7 51.7c-3.2-.4-5.4-.8-6-1.3-.5-.4-.5-.4.1-2.4a24.7 24.7 0 00-.3-17.2l-.2 2.4c-.1 2-.2 2.1-1 2.5a10 10 0 01-5.3.4c-1.8-.6-2-1-2-3 0-3.8 1-11.9 1.8-15.3.9-3.6 2.9-6.5 5.3-7.5.5-.3 2-.8 3.4-1.2C15 7.7 16.4 6.4 17 2.7c.3-1.9.3-1.9 1.4-2.3 1.4-.5 7-.5 8.4 0 1 .4 1 .4 1.4 2.3.6 3.6 2 5.1 6 6.2 5 1.5 6.7 2.7 8.1 5.8 1.4 3 2.5 9.4 2.8 16.7l.2 3.6-.9.5c-.5.3-1.4.7-2 .8-1.5.2-4.5-.3-5-.8-.2-.2-.5-1.3-.6-2.7l-.2-2.4L36 33c-1.4 4.8-1.3 9.3.5 14.9.6 2 .6 2 .1 2.5-.6.5-2.8 1-6.3 1.3-2.7.3-12.9.3-15.5 0zm7.3-9.2L22 34c.1-.2.3-.4.5-.4.4 0 .4 1.4.4 8.2 0 4.5.1 8.2.2 8.3.4.2 8.1-.3 10-.6 1.4-.3 1.7-.4 1.6-.7-.4-1-1.2-4.7-1.5-6.7-.4-3.1-.2-5.6 1.2-10.9L36 24c.5-3.5.8-4 1.5-4 .6.2.6.2.8 7.1l.3 7.2c.3.2 3.3.4 4 .2l.8-.2-.2-3.5c-.3-7-1.3-12.6-2.7-15.5-1.2-2.4-2.2-3-6.8-4.5-2.7-.9-3.5-1.3-4.5-2.2a8.4 8.4 0 01-2.8-5c-.2-1.3-.2-1.4-1.1-1.6a19.4 19.4 0 00-5.7 0c-.7.2-.8.4-1 1.9-.8 3.7-2.6 5.4-7 6.8-3.4 1-5.2 1.9-6 2.6-.6.8-1.6 3-2.1 4.6-1.2 4.1-2.2 16-1.5 16.5.6.3 3.5.2 4-.1.5-.3.5-1.2.7-7.2l.2-7h.7c.7 0 .7-.1 1.8 6a103 103 0 001.6 7c1 3.3 1.2 6 .8 9a51.1 51.1 0 01-1.5 6.8c0 .4.2.5 1.7.8l5.3.5 4 .2h.6zm-8.5-15.2c0-.2.5-1 1.2-1.7C17 23 18.5 19 18.5 14.8c0-1.5 0-1.8.5-1.7.4.1.4.4.4 2.8 0 4.2-1.2 7.4-3.8 10.2-1.3 1.5-2.1 1.9-2.1 1.2zM29.4 26c-2.6-3-3.5-5.5-3.7-9.9-.1-3 0-3 .4-3s.5.4.7 3c.2 4.3 1.2 6.7 3.7 9.6 1.4 1.5 1.5 2 .7 2-.3 0-1-.8-1.8-1.7z"/></svg>
