<svg xmlns="http://www.w3.org/2000/svg" width="187.2" height="187.8" viewBox="0 0 49.5 49.7"><path fill="#000" d="M43.9 45.6a87.5 87.5 0 00-4.4-4.2c-.1 0-.3.3-.4.7-.3 1-1.7 3-2.8 3.8a8.2 8.2 0 01-5.6 1.5 8 8 0 01-5.5-2.2 9.6 9.6 0 01-3-5.4c-1.1-4.6-2-5.8-8-11.5-3.4-3-4.2-5-4.2-9.8 0-1.8.2-3.8.4-4.6l.3-1.4L5.2 7C.2 2-.2 1.4 0 1 0 .6.6.2.9 0c.5-.2 1.7 1 13.4 12.6l24.2 24.2c10.4 10.4 11.3 11.4 11 12 0 .3-.5.6-.8.8-.5.3-1 0-4.8-4zM34.5 44c1.3-1 2.2-2.4 2.5-4 0-1 0-1-1-2.2l-1.2-1-.2.6c-.4 2.1-3.2 3.3-5.2 2.4-1.4-.7-1.8-1.5-2.1-4a11 11 0 00-3.6-7.4C21 25.5 20.5 24.8 20 23c-.4-1.5-.7-1.8-3.7-4.9a18.8 18.8 0 00-3.5-3 16 16 0 00-.3 3.3c0 3 0 3.4.8 4.8.5 1.1 1.2 2 2.5 3.2l4 4c2.7 2.5 3.8 4.6 4.8 8.3.7 2.7 1 3.3 2 4.4 1.5 1.4 2.6 1.7 4.8 1.6 1.6 0 2 0 3-.8zm-2.7-7l.7-1.3.4-1-2-1.9-2-1.8.3.8.5 2.8c.4 2.8.5 3 1.3 3 .3 0 .7-.4.8-.6zm-4.5-14.7c-.7-.8-.8-1-.5-1.3.7-.9-1-2.5-2.3-2.2-.4 0-.8-.2-1.5-.9-1.1-1-1-1.2.6-1.5a5 5 0 014.8 1.3l1.2 1c.4 0 0-2.6-.5-3.7-1.4-2.7-6-3.2-8.2-.9l-1 1-.8-1-1-.9 1-1c1.5-1.5 3-2 5.6-2 2 0 2.4 0 3.7.7a7.2 7.2 0 013.9 7.2c-.2 1.7-.8 2.7-2 3.5l-1.5 1.1c-.6.5-.6.5-1.5-.4zm10.3-2.7c-.3-.3-.5-1-.5-1.6 0-3-1.5-7-3.4-9-4.8-5-13-5-17.7 0l-1 1-1-.9c-.7-.9-.7-1-.3-1.6a15.3 15.3 0 0111-5c8 0 14.3 6 15 14.5 0 1.8 0 2.2-.3 2.6-.6.6-1.3.6-1.8 0z"/></svg>
