<svg xmlns="http://www.w3.org/2000/svg" xmlns:xlink="http://www.w3.org/1999/xlink" width="87" height="165.8" fill="#000" viewBox="0 0 87 165.8"><defs><pattern id="a" width="1" height="1" patternContentUnits="objectBoundingBox"><use transform="matrix(.00538 0 0 .00602 .3 0)" xlink:href="#b"/></pattern></defs><path fill="#000" d="M61.6 163a25.9 25.9 0 00-16.7-1.3c-7.6 1-9.1 1-11.8-.3-4-2.1-4.5-4.2-2.2-11 4.3-12.3 4.4-15.7 1-29.5a571 571 0 00-3.4-13.8c-.4-1 2.8-1.3 13.6-1.3h14l-.8 10.8c-.5 5.9-.8 14.2-.8 18.5 0 9-.8 8 13.9 17.8 8.6 5.7 9 6 13.7 5.3 4.9-.6 4.9-.6 4.9 2.3 0 1.6-.6 3.5-1.2 4.1-2.1 2.1-15.4 1.3-24.2-1.6zM27 89.7c0-7 1.2-20.3 2.5-27.2.5-2.8 0-3.9-4.4-8.8l-5-5.6 4.8-4.7 4.8-4.7 2.7 4.2a77.3 77.3 0 018.9 15.9 145 145 0 01-2.4 28.7c-1.2 7.7-1.2 7.6-8.2 8.9L27 97v-7.3zm19.4-1.1c.3-3.5.9-12.6 1.2-20.3.7-15.1.7-15.2-7-32.8l-1.7-3.7 2.8-1.1c1.5-.6 4.8-1.1 7.2-1.2 4-.2 4.6.1 6.3 3 1 1.7 2.7 5.6 3.7 8.5 1.7 5.1 1.7 6 0 26.8A1005 1005 0 0057 92.1c0 2.6-.2 2.7-5.7 2.7h-5.6zM6.2 32A46.9 46.9 0 010 23C0 21.4 32.7-.4 34.8 0a53 53 0 0110.7 16.8c-.3.3-2.2 1-4.3 1.3-5.4.8-15.5 7.6-22.7 15.3l-6.2 6.4z"/></svg>
