<svg xmlns="http://www.w3.org/2000/svg" viewBox="0 0 155 155">
  <path fill="#000" d="M56.43 125.2c-12.77-13.16-13.12-15.8-3.38-25.4l6.8-6.7 6.27 6.38 6.28 6.4-4.84 4.97-4.84 5 5.97 6.08c6.1 6.3 7.1 9.16 4.2 12.08-3.3 3.3-6.45 1.7-16.55-8.8zm24.2 8.8c-2.92-2.9-1.9-5.78 4.26-12.07l5.9-6.1-4.85-4.98-4.84-4.98 6.27-6.4 6.26-6.38 6.8 6.7c9.75 9.6 9.4 12.2-3.38 25.4-10.1 10.4-13.24 12.1-16.53 8.8zM38 88.56c-3.34-3.35-1.5-6.34 12.18-20l13.88-13.8h27l13.82 13.87c13.68 13.72 15.42 16.6 12.12 19.92-3.1 3.1-5.93 1.8-14.24-6.42L94.56 74v13.4h-34.1v-5.67c0-3.12-.5-5.68-1.13-5.68-.62 0-4.27 3.2-8.12 7.1-7.1 7.22-10.1 8.46-13.2 5.4zm30.64-38.88C61.2 45.63 58.47 35.72 62.6 27.7c5.7-10.97 22.7-10.97 28.38 0 7.57 14.65-7.85 29.83-22.34 21.97z"/>
</svg>
