<svg xmlns="http://www.w3.org/2000/svg" viewBox="0 0 155 155">
  <path fill="#000" d="M58.36 128.15l-.96-7.25-9.74.34c-12.5.43-14.95-1.3-13.78-9.82.5-3.6.22-6.5-.67-7.04-.8-.5-1.1-1.8-.7-2.9.2-.5 2.4-1.26 2.3-1.76-.1-.54-2.5-.8-2.9-1.05-.7-.47-1-2.34-.5-4.16.7-2.5.2-3.5-2.1-4-4.9-1.3-4.8-4.6.1-12.7 3.6-5.8 4.8-9.5 5-15.1.5-15.1 11.5-32.3 24.7-38.9 7.4-3.6 9.7-4 23.3-4 12.8 0 16.3.6 22.6 3.4 25.7 11.7 32.8 44.3 14.4 66.8-2.7 3.4-5.8 7.7-6.8 9.7-2.8 5.2-2.4 23.9.5 30.58l2.4 5.4h-56zM90.6 89.6c.37-4.4 2.35-4.1 3.85-1.67 1.92 3.12 9.98.2 10.48-2.82.62-3.7 1.77-4.6 6.03-4.6 2.26 0 4.34-1.4 4.13-3.3-.5-3.6.7-5.1 3.2-6.3 0 0 2.7-4.8 2.7-6.5 0-1.6.2-8-2.6-10.7-1.8-1.6-2.5-2.4-1.1-3.9.7-.8-.7-4.8-2.4-5.9-1.5-1-2.7-.8-2.6-2.2.1-1.3-.8-2.7-1.8-2.8-2.4-.1-2.5.1-2.5-2.4 0-1.5-4.4-2.4-5.6-2-2.4.68-2.9.1-3.1-1.3C99 32 95 30 93.9 30.56c-.9.4-2.3 1-4.2-.6-.5-.42-6.5-1.23-7.1.5-2.3.04-10.8-.7-11.4 1.8-.2.8-2.6 1.7-4.8 1.25-3.2-.68-5.4.8-6.6 2.85-1.1 1.87-3.5 2.9-4.6 2.9s-1.94.83-1.94 1.85c0 1-1.27 2.9-2.83 4.24-3.14 2.74-7.2 7.94-4 11.44 1.95 2.15.7 1.04 2.82 3 1.27.45 2.3-.2 2.3 2.85 1.6 2.45 4 2.9 6.1 3.28 8.1 1.5 8.2-.9 9.32 3.5.75 3 .64 7.2 6.6 7.4 2.95-.6 4.9.2 6.7 2.7 3.08.3 3.64 4.4 4.6 9.1.3 1.6.67 2.8 1.75 4.2 1.74 1.3 3.5.5 3.8-3z"/>
</svg>
