<svg xmlns="http://www.w3.org/2000/svg" viewBox="0 0 155 155">
  <path fill="none" d="M0 0h155v155H0z"/>
  <path fill="#000" d="M141.44 139.43l-29.07-28.6c.37-1.26.88-3.2.55-3.54l-10.87-10.8.64-.7c.2-.23.2-.6-.1-.8l-.3-.3c-.25-.2-.6-.2-.8.02l-.66.64-.58-.57-.06-8.76-.13.13c.1-.12.1-.3.06-.43l-.05-.07c0-.04 0-.08-.06-.1l-.1-.1-5.7-5.65-42.6-42L48 34.2l5.2-5.26c.4-.4.4-1.03 0-1.42l-.5-.5c-.4-.38-1.05-.38-1.44.02l-6.1 6.16L28.9 17.25l1.9-1.93c.54-.53.53-1.4 0-1.93s-1.4-.6-1.92 0L12.6 29.8c-.5.53-.5 1.4.02 1.93.54.52 1.4.5 1.93 0l1.9-1.95 16.3 15.96L26.6 52c-.38.4-.37 1.03.03 1.42l.5.5c.4.4 1.02.38 1.4-.02l5.2-5.25 3.58 3.54 3.2-3.2 1.7 1.7-3.1 3.1 8.97 8.8 3.1-3.1 1.7 1.7-3.1 3.1L58 72.4l3.06-3 1.7 1.7-3.03 3.07 9.23 9.1 3-3 1.7 1.72-3 3 8.24 8.1 2.93-2.95 1.7 1.72-2.9 2.9 5.2 5.16.1.14.1.08.07.06v-.06c.15.07.3.04.45-.05l-.12.12 8.77-.04.57.55-.62.65c-.23.2-.23.56 0 .8l.3.27c.2.24.57.2.78 0l.65-.63 10.87 10.73c.36.37 2.45-.16 3.62-.5l28.97 28.5c.2.24 2.54 1.34 2.54 1.34s-1.1-2.35-1.32-2.56"/>
</svg>
