<svg xmlns="http://www.w3.org/2000/svg" width="224.1" height="222.3" viewBox="0 0 59.3 58.8"><defs/><path fill="#000" d="M28 54.8c-.2-.2-.3-.7-.3-1.3 0-1 0-1-1-1.2-3-.8-4.5-1.6-5.9-3.1-.5-.6-1-1.6-1.3-2.2-1-3 .3-5.2 3.7-6.3l1.3-.4v-7.4c-.1-6.7-.2-7.5-.6-8.6-.8-2-2.4-2.6-4.5-1.7-1.3.6-1.7 1-2.7 2.1-.6.8-1.1.8-1.4.2-.5-.9 1.4-2.9 3.7-3.8l1.4-.6-.9-.2c-1.6-.6-5.5.3-7.6 1.7-1.4.9-2 .9-2 0 0-.8 1.6-1.8 4.4-2.8l1.5-.5-1.5-.7c-1.7-.9-3.4-1.9-4.3-3.2-.6-.8-.6-1-.4-1.3.5-.6 1-.4 2.1 1a12 12 0 005.4 3c3.1 1.1 4.7 2 6 3.2a8 8 0 012.8 5.4c.3 2.7.3 15-.1 15.4a8 8 0 01-1.7.6c-2.5.7-3.3 1.2-3.3 3 0 2.7 2 4.5 6.2 5.7 1.6.4 2.1 1 2.3 2.3.1 1.5-.5 2.4-1.3 1.7zm2.2-.2c-.3-.7 0-2.5.5-3 .2-.3 1.2-.7 2.1-1 3.8-1 5.8-2.6 5.8-5.4 0-1-.1-1.2-1-2-.6-.5-1.3-.8-2.5-1.1-1.2-.4-1.6-.6-1.7-1-.2-.8-.2-13.4 0-15 .7-4.2 3-6.5 8.6-8.5 2.5-.9 3.8-1.1 5.2-2.7 1.4-1.4 1.9-1.6 2.2-1 .5 1-2 3-4.6 4.2l-1.2.6 1.4 1c2.8 1.8 4.7 2.5 4 3.3-.5.4-.8.3-2-.5-2.1-1.3-5.6-2.8-7.2-2.2l-.9.3.8.3c2.7.9 5 3 4.4 4-.4.7-.7.5-1.8-.6a5.8 5.8 0 00-4-2c-1.4 0-2.2.5-2.8 2-.5 1-.5 1.8-.6 8.6v7.4l1 .3c2 .5 3.1 1.4 4 3 1 2.2-.5 5.6-3.3 7.2-1 .5-3.1 1.3-4.3 1.6-.6.1-.7.2-.7 1.3 0 .8 0 1.1-.3 1.2-.6.3-.8.2-1-.3zm-1-4.8c-.1-.1-1-.5-2.1-.7-2.6-.7-4.1-1.8-4.6-3.2l-.1-.5h7.3l7.3.1-.6 1.1c-.7 1.2-1.8 1.8-4.2 2.5l-2 .7c-.3.2-.7.2-1 0zm-2.1-8.6c-.2-.2-.3-2.3-.3-8.1 0-8.3 0-9.1-1.1-11.2-1-1.8-2.4-3-5.8-4.6a36 36 0 01-3.9-2c-1-.8-2.1-2.5-2.1-3.2 0-.8.8-1 1.3-.2a9 9 0 004.4 3.5c2.3 1.2 2.3 1.2 3.1.8.5-.2 1-.5 1-1 .3-.4.5-.5 1-.4.5 0 .6.1.5.7 0 .4-.3 1-.7 1.4l-.7.7.8.6c1.1.7 2.4 2.5 3 4.3.7 1.6.7 1.6.8 9.5v7.9H31l.1-8c.1-8.8.1-9 1.8-11.6.5-.7 1.3-1.6 1.8-2l1-.7-.7-.7c-1.2-1-1.2-2.2-.1-2.2.4 0 .6.2.8.6.1.4.5.7 1 1 .8.3.9.2 3-.7 2.3-1.1 4.3-2.3 4.8-3.4.3-.7.7-1 1.2-.8 1 .3-.5 2.4-2.2 3.7-.4.3-2.3 1.5-4 2.3-4.4 2-6 3.8-6.6 7l-.2 8.9c0 5.6-.1 7.7-.3 8-.2.1-1.1.2-2.6.2s-2.4 0-2.6-.3zm-14.6-7.5C8 32 4.8 26.7 3.9 20 3 13.4 6 7.3 11.1 4.8c1.5-.7 1.8-.8 3.7-.8a8 8 0 015.7 2 7 7 0 012.3 7.4c-.2.7-.5 1.3-.6 1.3-.1 0-.7-.1-1.2-.4-.7-.2-.9-.4-.8-.7.3-.9.5-2.1.3-2.8C20 8 18 6.4 15 6.4c-3.7 0-7 2.9-8.3 7.8-.4 1.7-.5 5.2 0 7.2.9 4.4 3.4 8.3 6 9.7 1.5.7 2.5.8 3.9.4 3-1 4.6-3.8 3.4-6.2l-.5-1 .8-.2c1.6-.7 2.4.3 2.4 2.9 0 2.8-1.4 5-4 6.2a8 8 0 01-6.1.5zm29.6 0a8 8 0 01-5-4.2c-.8-2-.4-5.3.7-5.6.3-.1.9 0 1.3.1l.8.4-.4.9c-1.3 2.4.3 5.3 3.4 6.2 1.5.4 2.5.3 4-.6 2.2-1.1 4.4-4.3 5.5-8 .7-2.2 1-6.6.4-8.6-1.2-4.9-4.8-8.1-8.4-8.1-3 0-5.3 1.5-5.7 4.2 0 .8.1 2.4.4 3.2.1.2-.1.5-1 .8L37 15l-.4-1.5C35.3 8.6 38 4.7 43 4c4.2-.7 8.5 1.6 10.8 6.2 1.4 3 1.7 4.4 1.7 7.9 0 3-.4 5-1.5 7.8a14.7 14.7 0 01-6.3 7.5c-1.6.8-4 1-5.6.5z"/></svg>
